<svg xmlns="http://www.w3.org/2000/svg" width="401" height="401" fill="none" viewBox="0 0 401 401"><path fill="#122f30" d="M193.07.086q6.148-.143 12.295-.048A199.23 199.23 0 0 1 343.718 60.5a199 199 0 0 1 56.418 144.016 199.52 199.52 0 0 1-44.815 122.128c-6.401 7.853-12.438 14.009-19.688 20.92-.17 5.824-.087 11.577-.028 17.402-5.091.929-12.641 1.383-17.893 1.845-8.971.793-8.87 1.439-16.516 5.958-30.86 18.249-64.67 26.962-100.435 27.399a198.8 198.8 0 0 1-72.531-13.445c-6.099 1.1-16.791 1.873-23.197 2.527l-39.937 4.158c-.373-14.95.408-31.028-.225-45.728l-.28-.253A201.37 201.37 0 0 1 .146 207.399a199.72 199.72 0 0 1 52.63-142.883A199.15 199.15 0 0 1 193.07.086"/><path fill="#254746" d="M306.71 268.889c1.188-.072 2.115-.122 3.317-.097 2.778.184 2.536.559 4.729 2.608.142.133.242.386.331.576 2.705-.306 14.194-1.781 16.204-1.648.47.871.309 1.52.223 2.633.398 10.4.164 20.48.108 30.872l.059 26.65q-.162 15.623.013 31.245c-8.037.451-15.95 1.531-23.943 2.335l-52.352 5.566-144.87 14.978c-9.38.896-18.763 2.43-28.187 3.042-3.728.242-7.438.957-11.152 1.247-1.136.122-.963.278-1.83-.145-.98-2.104-.408-5.096-.415-7.422l-.028-21.293-.05-62.301 167.099-17.421 43.17-4.578c4.089-.454 13.204-1.105 16.883-1.832l-.437-.183c.181-.195 6.393-.922 7.98-1.481-.432-.323-.599-.326-1.133-.523-2.037-2.658-4.214-1.166-7.425-.882l-.382-.387c.546-.162 1.943-.345 2.547-.429 2.741-.284 6.958-.606 9.541-1.13"/><path fill="#d89137" d="M306.71 268.889c1.188-.072 2.115-.122 3.317-.097 2.778.184 2.536.559 4.729 2.608.142.133.242.386.331.576 2.705-.306 14.194-1.781 16.204-1.648.47.871.309 1.52.223 2.633-21.615 1.636-44.529 4.481-66.163 6.824l-85.422 8.953-73.764 7.759-21.44 2.196c-4.506.431-9.14.707-13.606 1.355.617 15.476.169 33.925.144 49.599l-.048 25.292c0 4.406.174 9.654-.025 13.957-1.136.122-.963.278-1.83-.145-.98-2.104-.408-5.096-.415-7.422l-.028-21.293-.05-62.301 167.099-17.421 43.17-4.578c4.089-.454 13.204-1.105 16.883-1.832l-.437-.183c.181-.195 6.393-.922 7.98-1.481-.432-.323-.599-.326-1.133-.523-2.037-2.658-4.214-1.166-7.425-.882l-.382-.387c.546-.162 1.943-.345 2.547-.429 2.741-.284 6.958-.606 9.541-1.13"/><path fill="#152829" d="M306.71 268.889c1.188-.072 2.115-.122 3.317-.097 2.778.184 2.536.559 4.729 2.608.142.133.242.386.331.576-5.399.567-13.844 1.711-19.068 1.928l-.437-.183c.181-.195 6.393-.922 7.98-1.481-.432-.323-.599-.326-1.133-.523-2.037-2.658-4.214-1.166-7.426-.882l-.381-.387c.546-.162 1.943-.345 2.547-.429 2.741-.284 6.958-.606 9.541-1.13"/><path fill="#f1ead6" d="M242.362 323.459c.337-.061.813-.061 1.169-.075.835.921 4.314 6.832 5.202 8.251a856 856 0 0 0 11.564 17.976q.033 6.057 0 12.114c-2.488.142-5.567.498-8.035.805l-2.917-4.498c-.671-.835-3.462-5.396-4.2-6.554l-9.415-14.828c-2.452-3.837-3.925-7.202-8.144-9.039-.487-.209-.359-.963-.329-1.383 1.648-1.906 12.091-2.449 15.105-2.769m-90.386 9.523c.963-.13 1.667-.339 2.559-.008.786 1.912 2.409 8.68 3.012 10.926a1631 1631 0 0 0 6.448 23.539c1.415.899 3.02 1.542 2.122 3.426-1.399 1.121-3.121 1.235-4.839 1.338-3.986.24-8.087.991-12.063.785-.518-.028-.968-.517-1.348-.821.626-1.642 1.202-1.976 2.514-3.12a608 608 0 0 0-1.372-6.022 283 283 0 0 1-8.682.409l.945-3.259c2.149-.05 4.673-.32 6.844-.498l-3.623-13.946c-.619-2.404-2.847-9.083-1.452-11.257.553-.863 7.453-1.339 8.935-1.492m139.078-14.519.621-.078.459.284c1.773 6.949 7.932 28.955 9.452 34.39l.384.25c1.269.833 2.082 1.136 2.388 2.583-1.283 1.776-16.847 3.351-18.417 2.494-.484-.952-.364-.446-.253-1.598.715-.732 1.589-1.497 2.349-2.198-.459-2.163-.846-4.253-1.589-6.34-2.758.345-5.564.634-8.327.943l.37-3.175 7.272-.971c-1.48-4.976-2.616-10.178-4.035-15.168-.524-1.839-2.469-8.26-1.172-9.751 1.091-1.256 8.72-1.528 10.498-1.665m-73.198 7.779c1.472-.187 2.664-.496 3.963.178 1.172 1.739-.907 2.68-2.204 3.484l-.036 31.665c1.553.582 3.045.949 2.647 2.884-2.004 2.184-11.289 2.39-14.557 2.696-1.477.209-2.351.46-3.579-.342-.857-1.926 1.022-2.744 2.419-3.609.328-10.003.17-21.766.056-31.808-1.42-.481-3.338-.876-2.745-2.752 2.313-1.937 10.615-2.11 14.036-2.396M117.15 336.547l1.258-.022.356.351c.511 9.818-.436 26.205.211 35.422 1.438.298 3.047.687 3.589 2.176-1.323 2.477-11.019 2.78-14 3.059-1.992.228-3.319.632-5.027-.376-1.144-1.775 1.238-2.852 2.561-3.701.248-11.519.004-24.165.006-35.77 3.614-.312 7.401-.785 11.046-1.139m71.333-7.241.402-.008.352.336c.476 10.119-.371 25.635.211 35.15 1.426.459 3.663.849 3.113 2.775-2.199 2.106-10.809 2.301-14.245 2.613-1.904.231-2.873.593-4.448-.398-.998-1.957 1.348-2.936 2.787-3.81q-.076-17.785.108-35.57 5.848-.672 11.72-1.088m89.707-45.082c6.471-.999 7.515 3.851 7.339 9.12-.18 5.399.833 11.986-1.291 16.943-.905 2.109-4.331 2.914-6.36 3.256l-6.791.645.042-29.269c2.268-.317 4.765-.492 7.061-.695"/><path fill="#1d3b3b" d="M276.871 288.337c1.45-.031 2.374-.153 3.46.768 1.027 2.176.456 14.232.423 17.322-.012 1.21-.326 1.747-1.217 2.502-1.105.275-2.36.434-3.495.609-.117-6.598-.112-13.45.022-20.052.014-.776.267-.784.807-1.149"/><path fill="#f1ead6" d="M147.235 297.852a37 37 0 0 1 2.312-.184c7.677-.322 8.411 8.578 3.506 13.273.925.643 1.687 1.291 2.552 2.006 1.736 4.818 1.616 10.303-3.277 13.117-3.664 1.199-6.778 1.255-10.611 1.55-.265-9.07-.153-19.829-.019-28.941 1.847-.348 3.676-.576 5.537-.821"/><path fill="#254746" d="M146.434 314.005c1.602-.142 3.047-.429 4.457.362 1.086 1.686.93 6.284-.164 7.954-1.365.428-2.866.548-4.297.726.059-2.931-.007-6.081.004-9.042m.05-11.975c1.247-.123 2.6-.412 3.691.417 1.936 1.467 1.392 5.062.017 6.771-1.348.565-2.345.596-3.793.749q-.021-3.967.085-7.937"/><path fill="#f1ead6" d="M231.7 288.61c10.206-1.119 7.954 9.092 8.177 16.022.2 6.147.809 11.719-6.11 13.937-6.504 1.252-9.051-3.033-8.416-8.677.952-8.455-3.426-17.567 6.349-21.282"/><path fill="#1d3b3b" d="M231.816 292.701c.638.005 2.667.061 2.784.835.885 5.939.206 12.713.236 18.788.006 1.005-.946 1.656-1.581 2.171-4.177-.062-3.234-5.043-3.2-8.38.033-3.393-.871-11.491 1.761-13.414"/><path fill="#f1ead6" d="M212.256 291.181c1.943-.367 4.595-.428 6.19.883 2.321.957 2.727 8.271 1.439 10.074-3.432 4.806-1.008 1.739.206 5.463.779 2.394.339 8.11.815 11.411l.062.406c-1.67.197-3.24.292-4.918.395-.368-3.22-.098-7.063-.451-10.651-.788-1.658-2.987-1.984-4.253-.974-.431 1.623-.245 10.036-.234 12.315l-4.631.432c-.164-9.51-.067-19.657.033-29.175z"/><path fill="#254746" d="M212.025 295.05c.729-.02 1.929-.117 2.508.303 2.321 1.687 1.5 5.953.111 7.726-1.177.27-1.892.526-3.092.367-.782-1.083-.445-5.847-.348-7.35.047-.757.281-.715.821-1.046"/><path fill="#f1ead6" d="M176.245 294.471c1.963-.184 3.828-.34 5.447.949 1.912 1.525 3.956 4.258 2.188 6.565-1.126.54-2.657.543-3.948.651-.154-2.212-.556-4.8-3.608-4.004-.273.256-.676.617-.81.996-2.338 6.646 6.713 8.007 8.41 13.464.779 2.508.453 5.51-.661 7.759-1.067 2.151-3.132 2.956-5.201 3.54q-.413.051-.827.075c-6.263.395-6.84-3.175-7.018-8.377l4.436-.67.054 1.124c.209 4.305 3.814 4.67 4.553 2.185 2.317-7.793-10.492-8.653-8.889-17.355.805-4.375 1.338-5.416 5.874-6.902m-50.322 5.613c1.102-.117 1.479-.234 2.235.27.469.98.229 2.541.167 3.71l-8.12.771c.111 2.499.077 5.135.085 7.645 1.86-.259 4.621-.337 6.556-.451l.028 4.163-6.643.518c.063 2.947.062 5.956.092 8.908 2.457-.144 5.148-.501 7.694-.676l.207.203c.291.894.104 2.831.06 3.858a401 401 0 0 1-12.745 1.271q-.138-14.583-.025-29.166 5.198-.578 10.409-1.024m175.972-18.368c.829-.111.448-.17 1.196.145.487 1.149.226 2.583.131 3.888-2.624.292-5.357.495-7.996.723l.006 7.754 6.501-.562-.067 4.247q-3.231.237-6.462.425l.078 9.029c1.762-.142 6.961-1.147 8.015-.368l-.025 3.757c-3.604.651-8.928.974-12.688 1.303q-.146-14.59-.036-29.186zM201.816 292.32l.315.217c.275 1.252.072 2.644-.022 3.949-1.623.117-3.262.272-4.885.409.301 7.739.1 17.344.064 25.15-1.508.17-3.165.273-4.69.401l-.026-4.244c-.082-6.911-.015-13.913-.005-20.831l-4.923.49-.05-4.069a392 392 0 0 1 14.222-1.472m54.682-5.861c.615-.076.551-.045 1.18.022.685.807.426 2.872.384 4.002l-4.999.426.042 25.183c-1.472.184-3.212.276-4.715.393l-.08-2.611.022-22.359-4.873.493-.037-4.177c4.337-.499 8.731-1.05 13.076-1.372m-154.784 16.124c.799-.083 1.193-.222 1.875.184.265 2.257.158 6.195.158 8.572l-.054 15.991q3.854-.434 7.722-.713c.046 1.289.211 2.578-.199 3.769-.855.757-.695.517-2.065.698l-10.13.955c-.201-7.359.005-14.781-.14-22.145-.041-2.123-.14-4.597.133-6.668.685-.612 1.736-.556 2.7-.643m61.52-6.44 2.541-.125q-.027 8.972.046 17.942c.019 3.34.156 7.601-.069 10.857-.698.662-1.146.518-2.26.671-1.081.105-1.284.172-2.317-.062-.591-1.809-.38-25.52-.201-28.654.611-.57 1.396-.534 2.26-.629m-22.599 45.536c.827.804 1.668 4.381 2.036 5.717-1.616 5.763-5.072 16.675-5.49 22.25 1.454 1.096 3.453 1.672 3.236 3.785-1.222 1.294-4.842 1.386-6.716 1.58-1.797.237-3.13.668-4.556-.389l-.363-.799c.354-1.074 3.875-3.829 4.239-4.728 1.049-2.588 1.91-6.151 2.6-8.714zm137.817-14.218c3.768 3.849-1.731 17.001-2.769 21.832-1.32 6.151-2.079 4.055 2.376 8.388.259.924.284.485-.052 1.364-1.392 1.23-4.242 1.205-6.176 1.372-1.718.181-4.042.779-5.364-.414-.498-2.352 3.552-3.61 4.312-5.731 3.092-8.613 4.503-18.262 7.673-26.811m-46.983 7.72c5.282 4.08 3.122 12.64 3.401 18.543.272 5.772.915 4.325 4.533 8.483l-.097.598c-1.052 1.258-2.201 1.219-3.799 1.4-2.087.212-6.468 1.005-7.988-.12-.459-2.04 3.418-3.913 3.577-5.894.548-6.838.523-16.222.373-23.01"/><path fill="#152829" d="M318.764 277.341a6 6 0 0 1 4.94.295 5.994 5.994 0 0 1-.743 10.938 5.996 5.996 0 0 1-4.197-11.233"/><path fill="#b64f31" d="M320.932 279.245c.593-.123 1.628.019 2.051.415 4.064 3.773-2.165 11.644-5.828 4.263.117-2.964 1.06-3.779 3.777-4.678"/><path fill="#d89137" d="m320.932 279.245.072.54c-1.567 1.536-2.488 2.727-3.849 4.138.117-2.964 1.06-3.779 3.777-4.678"/><path fill="#152829" d="M79.367 371.605c7.92-.557 9.69 8.385 2.14 12.167-5.128-.467-8.469-3.373-6.167-9.228.6-1.528 2.471-2.488 4.027-2.939"/><path fill="#b64f31" d="M81.276 373.934a3.632 3.632 0 1 1-1.44 7.12 3.632 3.632 0 0 1 1.44-7.12"/><path fill="#d89137" d="M77.003 378.248a3.63 3.63 0 0 1 4.274-4.314l-.2.44c-2.867.969-2.311 2.065-4.075 3.874"/><path fill="#1b2727" d="M319.318 346.299a5.97 5.97 0 0 1 6.473 2.165 5.97 5.97 0 0 1 .885 5.447 5.98 5.98 0 0 1-11.113.617 5.972 5.972 0 0 1 3.755-8.229"/><path fill="#b64f31" d="M320.375 348.5a3.64 3.64 0 1 1 .927 7.22 3.641 3.641 0 0 1-.927-7.22"/><path fill="#152829" d="M78.421 302.762c5.901-.123 7.219 1.141 8.069 6.837l-.135.318c-1.008 2.374-1.6 3.303-4.005 4.274-6.497.969-8.553-3.066-7.19-8.852 1.16-1.378 1.614-1.862 3.261-2.577"/><path fill="#b64f31" d="M81.792 305.018c.753.123 1.895.813 2.18 1.45 2.066 4.604-6.814 8.803-7.067 1.912.611-2.902 2.108-3.515 4.887-3.362"/><path fill="#d89137" d="M76.905 308.38c.611-2.902 2.108-3.515 4.887-3.362l.091.373-.832.293c-2.132.737-3.342 2.883-4.146 2.696"/><path fill="#f1ead6" d="M261.132 321.505c1.027-.122 2.051-.284 2.936.206.61.874.454.404.507 1.45-.785 1.525-3.772 3.317-3.933 4.472-.743 5.333-.373 11.753-.306 17.121l-1.943-2.833-1.461-2.298c-.122-2.989.682-9.499-1.074-11.984-.952-1.347-4.125-2.766-3.201-4.689 1.681-1.022 6.324-1.242 8.475-1.445m-87.204 9.248.257.259c.319 3.932-1.868 4.595-3.202 8.135-.709 1.881-.367 3.882-1.535 5.602-.798.618-1.274.52-2.344.579-1.32-1.979-.757-10.851-.701-13.768q3.75-.526 7.525-.807m-45.308 4.701h.27c1.022 1.386.961 12.662-1.453 14.327-1.471-.451-1.759-2.244-2.106-3.591-.891-3.019-1.645-4.349-3.895-6.453.079-1.183.027-2.305-.004-3.485 2.555-.361 4.611-.604 7.188-.798m67.975-6.986c.621-.111 2.444-.189 3.162-.239-.045 3.835.325 8.076-.139 11.847-.148 1.194-.512 1.6-1.411 2.196-.947.114-.894.109-1.748-.334-1.005-4.266-1.2-6.462-4.359-9.521-.085-1.068-.089-2.324-.122-3.412 1.503-.222 3.1-.373 4.617-.537m-94.725 9.749c.798-.15.757-.195 1.501.103 1.145 2.599-1.806 4.843-2.693 7.102-1.037 2.641-.236 5.383-2.837 7.078-.384-.106-1.207-.256-1.38-.51-1.397-2.037-.772-10.645-.727-13.141z"/><path fill="#1d3b3b" d="M88.706 355.717c1.553.225 4.387 1.389 3.905 3.356-1.476.331-2.55.849-3.833-.1-.43-1.055-.19-2.082-.072-3.256"/><path fill="#254746" d="M15.881 265.26c-2.187-6.136-4.715-14.24-6.18-20.561a195.26 195.26 0 0 1 9.312-118.791c3.721-9.14 8.737-19.422 13.99-27.796a204.2 204.2 0 0 1 28.001-35.808 198.25 198.25 0 0 1 95.162-53.062 197.46 197.46 0 0 1 122.795 11.62c11.473 5.062 19.605 9.857 30.098 16.449 5.229 3.54 9.919 7.102 14.898 10.963 1.511.622 6.903 5.717 8.341 7.05 45.72 42.333 69.639 104.585 62.166 166.689-1.575 13.084-3.857 26.574-8.686 38.872-3.301-.119-8.973.793-12.458 1.022-1.712.114-6.783.509-8.205.832 1.567-3.76 3.515-10.918 4.676-14.953a177.56 177.56 0 0 0-2.11-102.858c-15.538-47.933-53.073-88.197-99.488-107.601a175.45 175.45 0 0 0-134.483-.691 176.9 176.9 0 0 0-96.936 96.946 175.98 175.98 0 0 0-.15 132.213c2.301 5.563 5.65 12.685 8.486 18.034 2.203 4.152 4.895 7.252 7.02 11.961-1.93.198-20.048 1.753-20.722 2.084l-.219-.03c-4.722-6.187-12.45-25.05-15.308-32.584"/><path fill="#79947c" d="M15.881 265.26c-2.187-6.136-4.715-14.24-6.18-20.561a195.26 195.26 0 0 1 9.312-118.791c3.721-9.14 8.737-19.422 13.99-27.796a204.2 204.2 0 0 1 28.001-35.808 198.25 198.25 0 0 1 95.162-53.062 197.46 197.46 0 0 1 122.795 11.62c11.473 5.062 19.605 9.857 30.098 16.449l-.551.617C266.147 9.59 213.122.236 163.322 10.116a197 197 0 0 0-124.81 84.69 195.42 195.42 0 0 0-28.124 144.469c1.99 9.855 3.517 16.055 6.65 25.676z"/><path fill="#8a9f8a" d="M17.037 264.951a181 181 0 0 0 6.44 16.632c.929 2.07 7.9 15.451 7.712 16.261-4.722-6.187-12.45-25.05-15.308-32.584z"/><path fill="#677e73" d="M309.059 37.31c5.229 3.541 9.919 7.103 14.898 10.965l-.036.295-.331.232c-1.473-.713-4.211-3.187-5.681-4.235a1553 1553 0 0 0-9.401-6.639z"/><path fill="#152829" d="M378.024 242.196a5.88 5.88 0 1 1-3.925 7.321 5.88 5.88 0 0 1 3.925-7.321"/><path fill="#b64f31" d="M379.682 244.162c3.594-.888 4.838 6.12.282 7.531-2.049-.128-4.239-2.469-3.677-4.561 1.066-1.896 1.372-2.188 3.395-2.97"/><path fill="#d89137" d="m379.682 244.162.148.535c-1.052 1.118-1.906 2.112-3.162 3.008-.35-.351-.231-.153-.381-.573 1.066-1.896 1.372-2.188 3.395-2.97"/><path fill="#152829" d="M378.655 146.054c2.6-.01 5.508 1.414 6.544 3.91a5.47 5.47 0 0 1-.036 4.26c-.905 2.089-2.294 2.831-4.245 3.536-3.521.147-4.442-.52-6.641-3.105-1.004-4.685-.103-6.798 4.378-8.601"/><path fill="#b64f31" d="M380.217 148.549c1.884.549 3.668 2.185 2.825 4.261-1.537 3.795-6.602 3.958-6.953-.639.579-2.505 1.734-3.162 4.128-3.622"/><path fill="#d89137" d="M376.089 152.171c.579-2.505 1.734-3.162 4.128-3.622-.276.812-2.806 2.911-3.632 3.741z"/><path fill="#152829" d="M291.538 33.587a5.82 5.82 0 0 1 6.505 2.843 5.83 5.83 0 0 1 .665 3.626 5.823 5.823 0 1 1-11.383-2.348 5.82 5.82 0 0 1 4.213-4.121"/><path fill="#b64f31" d="M293.656 35.807a3.462 3.462 0 1 1-1.419 6.777 3.462 3.462 0 0 1 1.419-6.777"/><path fill="#d89137" d="M289.66 38.111a3.46 3.46 0 0 1 3.996-2.304l-.353.224c-2.182 1.403-1.918 1.769-3.446 3.648-.272-.677-.192-.809-.197-1.568"/><path fill="#152829" d="M20.91 241.861c1.647 0 3.702 1.041 4.501 2.56 1.284 2.446.864 3.877.19 6.365-2.014 2.101-2.291 2.201-5.115 2.941-2.82-.286-4.96-1.346-5.51-4.402a6.43 6.43 0 0 1 1.073-4.868c1.373-1.94 2.721-2.249 4.861-2.596"/><path fill="#b64f31" d="M20.642 244.129c6.788-.457 1.784 12.273-2.817 5.552-1.452-2.853.222-4.481 2.817-5.552"/><path fill="#d89137" d="m20.642 244.129.422.314c-1.123 1.559-2.349 2.352-2.837 4.475-.08.348-.187.496-.402.763-1.452-2.853.222-4.481 2.817-5.552"/><path fill="#152829" d="M359.304 101.758a5.81 5.81 0 1 1 3.877 10.952 5.81 5.81 0 0 1-3.877-10.952"/><path fill="#b64f31" d="M361.809 103.865a3.445 3.445 0 1 1-1.047 6.81 3.445 3.445 0 0 1 1.047-6.81"/><path fill="#d89137" d="M357.901 107.918a3.44 3.44 0 0 1 .905-3.039 3.44 3.44 0 0 1 3.003-1.014c-.473.969-2.508 1.898-3.482 4.004z"/><path fill="#152829" d="M384.278 194.356a5.796 5.796 0 0 1 7.219 7.127 5.79 5.79 0 0 1-4.25 4.076 5.798 5.798 0 0 1-2.969-11.203"/><path fill="#b64f31" d="M384.932 196.804c8.758-.984 2.911 11.255-1.754 5.357a3.45 3.45 0 0 1-.746-2.338c.657-1.831.838-1.97 2.5-3.019"/><path fill="#d89137" d="M382.432 199.823c.657-1.831.838-1.97 2.5-3.019l2.182.323-.295.519c-4.033.85-2.441 2.133-4.061 2.75z"/><path fill="#152829" d="M19.251 146.342c2.48-.234 4.96.433 6.344 2.665a5.52 5.52 0 0 1 .636 4.22c-.58 2.366-2.028 3.402-3.966 4.514-5.152.345-8.431-2.188-6.914-8.042.476-1.837 2.251-2.631 3.9-3.357"/><path fill="#b64f31" d="M19.99 148.666a3.461 3.461 0 1 1 1.62 6.73 3.461 3.461 0 0 1-1.62-6.73"/><path fill="#d89137" d="m19.99 148.666.742.327c-.54.783-.943.847-1.42 1.628-.677 1.112-.352 2.712-1.27 3.5a3.46 3.46 0 0 1 1.947-5.455"/><path fill="#152829" d="M151.104 15.047c8.606-.55 7.949 9.64 2.133 11.34-2.11.041-2.667-.169-4.669-.729-3.63-4.04-3.358-9.367 2.536-10.61"/><path fill="#b64f31" d="M151.378 17.142a3.508 3.508 0 1 1 1.456 6.862 3.508 3.508 0 0 1-1.456-6.862"/><path fill="#d89137" d="m151.378 17.142 1.41.37c-.541.421-3.894 3.336-3.706 3.271-.123-.316-.338-.777-.371-1.091a3.51 3.51 0 0 1 2.667-2.55"/><path fill="#152829" d="M106.247 33.666a5.754 5.754 0 0 1 6.565 7.566 5.752 5.752 0 1 1-6.565-7.566"/><path fill="#b64f31" d="M107.158 35.722a3.453 3.453 0 0 1 1.101 6.795 3.454 3.454 0 1 1-1.101-6.795"/><path fill="#d89137" d="M104.154 40.275a3.453 3.453 0 0 1 3.004-4.553c-1.314 1.859-1.829 2.791-3.004 4.553"/><path fill="#152829" d="M67.599 63.21a5.737 5.737 0 1 1 2.621 11.17 5.737 5.737 0 0 1-2.62-11.17"/><path fill="#b64f31" d="M68.201 65.322a3.535 3.535 0 1 1 1.459 6.918 3.535 3.535 0 0 1-1.459-6.918"/><path fill="#d89137" d="m68.201 65.322.191.415c-.62.76-2.24 2.954-2.992 3.23a3.534 3.534 0 0 1 2.801-3.645"/><path fill="#152829" d="M329.666 63.205c2.098-.194 2.969.061 4.968.55 3.737 3.474 3.056 8.667-1.798 10.746-8.038.6-9.63-8.784-3.17-11.296"/><path fill="#b64f31" d="M331.065 65.299a3.498 3.498 0 1 1 .883 6.939 3.498 3.498 0 0 1-.883-6.94"/><path fill="#152829" d="M198.88 8.67a5.733 5.733 0 1 1 2.472 11.191 5.733 5.733 0 0 1-2.472-11.192m46.855 6.346c8.909-.846 11.281 7.795 4.96 10.937-2.538.54-3.017.472-5.477-.375-3.716-3.43-2.708-7.279.517-10.562"/><path fill="#b64f31" d="M248.287 17.052c8.019-.148-.281 13.111-3.376 4.592-.295-2.823.805-3.852 3.376-4.592"/><path fill="#d89137" d="M244.911 21.644c-.295-2.823.805-3.852 3.376-4.592l.41.301c-1.403 1.56-2.283 2.049-3.293 4.132z"/><path fill="#152829" d="M37.236 101.544c8.332-.516 10.725 7.887 3.755 10.907-.964.45-2.3.439-3.404.52-4.24-2.368-3.566-4.109-3.5-8.469 1.051-1.374 1.683-2.072 3.15-2.958"/><path fill="#b64f31" d="M36.188 109.035a3.489 3.489 0 1 1 6.05-3.477 3.489 3.489 0 0 1-6.05 3.477"/><path fill="#d89137" d="M36.188 109.035a3.489 3.489 0 0 1 4.624-4.839l-.338.132c-.416.158-.406.142-.884.189-2.261.225-2.289 3.366-3.402 4.518"/><path fill="#152829" d="M12.45 194.207c2.662-.131 5.067.281 6.625 2.702a5.78 5.78 0 0 1 .733 4.601c-.589 2.212-1.799 2.935-3.628 3.949-3.361.451-4.245.166-6.491-2.281-1.06-4.163-1.068-6.464 2.76-8.971"/><path fill="#b64f31" d="M13.056 196.887a3.45 3.45 0 1 1 2.757 6.325 3.45 3.45 0 0 1-2.757-6.325"/><path fill="#d89137" d="m13.056 196.886.65.147c-.08.656-2.136 3.672-2.545 4.107a3.45 3.45 0 0 1 1.895-4.254"/><path fill="#1d3b3b" d="M57.389 80.596q.71-.015 1.42-.006c1.104.025 1.252.168 1.937.888.143.872.253 1.183.066 2.06-1.276.069-2.213.376-3.172-.229-.513-.872-.32-1.66-.251-2.713"/><path fill="#79947c" d="M264.898 88.437c.35-.242 1.951-5.08 2.986-6.516 2.558-3.547 10.896-7.78 14.737-4.859-.718.71-1.856 1.684-2.232 2.56l.128.534c.874.861 1.25 1.274 2.318 1.94 1.467.886 3.304 1.926 4.704 2.853 1.094.612 1.932 1.097 3.1 1.584 1.779-1.057 1.874-1.737 1.567-3.555l1.503-2.686c3.869 1.813 7.607 4.243 11.431 6.239 6.131 3.2 12.202 5.87 18.497 8.662l-1.319 2.887c-1.102 1.637-1.587 1.995-1.528 3.959 1.277.188 1.726.461 2.883.989 1.726.624 3.83 1.319 5.494 2.01.749.239 2.347.801 3.054.873 1.508-1.781.821-3.643.501-5.833 1.363 2.385 1.914 3.44 3.629 5.602.89 1.68 2.221 3.356 2.967 4.808 5.956 8.799 12.04 20.959 15.719 30.928.521 1.307 1.172 2.711 1.406 4.079 10.222 27.667 11.859 60.768 5.541 89.498-1.33 6.221-3.281 13.399-5.58 19.336-.426 1.962-1.183 2.746-1.656 4.266-.579 1.837-1.136 3.718-1.837 5.51q-4.082.496-8.177.883c-.262.077-1.793.066-2.163.069-2.53.548-5.435.704-8.032 1.01-1.514.22-2.441.284-3.966.343-2.377.336-4.815.556-7.206.801-1.305.398-3.334.331-4.756.44l-8.609.963.025.178c-1.202-.025-2.129.025-3.317.097-2.583.524-6.8.846-9.541 1.13-.604.084-2.001.267-2.547.429-1.859-.137-7.818.632-9.994.863-.66.147-1.578.325-2.196.526-.198-.084-.916-.435-.974-.577-1.114-2.593-1.208-3.581-3.067-5.674-.371-18.897-.128-38.93-.039-57.881 4.108-4.296 3.852-8.153.039-12.427q-.164-14.632-.098-29.265c-.011-5.811-.103-11.66-.005-17.467.03-1.685.292-1.652 1.589-2.846 1.069-2.531 1.255-2.821 1.211-5.549-.565-7.174-12.775-11.076-18.592-12.909 7.498-5.504 7.256-12.573 7.737-21.171-.543-7.31-.501-11.821-5.335-17.634"/><path fill="#f1ead6" d="M264.898 88.437c.35-.242 1.951-5.08 2.986-6.516 2.558-3.547 10.896-7.78 14.737-4.859-.718.71-1.856 1.684-2.232 2.56l.128.534c.874.861 1.25 1.274 2.318 1.94 1.467.886 3.304 1.926 4.704 2.853 1.094.612 1.932 1.097 3.1 1.584 1.779-1.057 1.874-1.737 1.567-3.555l1.503-2.686c3.869 1.813 7.607 4.243 11.431 6.239 6.131 3.2 12.202 5.87 18.497 8.662l-1.319 2.887c-1.102 1.637-1.587 1.995-1.528 3.959 1.277.188 1.726.461 2.883.989 1.726.624 3.83 1.319 5.494 2.01.749.239 2.347.801 3.054.873 1.508-1.781.821-3.643.501-5.833 1.363 2.385 1.914 3.44 3.629 5.602.89 1.68 2.221 3.356 2.967 4.808 5.956 8.799 12.04 20.959 15.719 30.928l-.281.578c-3.832.689-8.809 2.152-12.524 1.96-3.566-.185-7.251-2.195-11.072-1.952-4.289.273-8.066 2.252-12.363 2.028-3.674-.245-7.078-2.009-10.799-2.094-3.381-.076-6.476 1.359-9.794 1.851-4.353.646-7.954-.922-12.137-1.626-1.342-.226-2.466.068-4.097-.203-.869-.653-.59-.429-.882-1.807-.565-7.174-12.775-11.076-18.592-12.909 7.498-5.504 7.256-12.573 7.737-21.171-.543-7.31-.501-11.821-5.335-17.634"/><path fill="#f7daa5" d="M339.318 110.488c-.106.086-.521.56-.529.66-.348 3.839-1.024 7.843-3.432 10.99-5.293 6.923-14.74 8.334-21.739 3.08-6.975-5.234-8.158-15.393-3.095-22.312 2.093-2.863 6.025-5.023 9.385-5.823.954-.226 1.756.411 2.41.997-1.102 1.637-1.587 1.995-1.528 3.959 1.277.188 1.726.461 2.883.989 1.726.623 3.83 1.319 5.494 2.01.749.238 2.347.801 3.054.873 1.508-1.781.821-3.643.501-5.833 1.363 2.385 1.914 3.44 3.629 5.602.89 1.68 2.221 3.355 2.967 4.808"/><path fill="#f8bb47" d="M323.673 103.028c1.726.623 3.83 1.319 5.494 2.01-.954 5.029 2.015 9.787-1.892 12.808-3.847 3.358-8.509 1.626-10.524-2.812-.887-6.745 2.828-6.36 6.922-12.006"/><path fill="#f8ca68" d="M318.538 110.708c2.477-.887 4.754.174 6.802 1.433.262 1.918.435 3.88 1.139 5.677l.796.028c-3.847 3.358-8.508 1.626-10.524-2.812.944-1.901.83-1.782 1.222-3.885z"/><path fill="#f7daa5" d="M318.538 110.708c2.149.544 2.836 3.85 1.456 5.369-1.837.101-1.868-3.641-2.021-4.928z"/><path fill="#d97a24" d="M320.79 102.039c1.277.188 1.726.461 2.883.989-4.094 5.646-7.809 5.261-6.921 12.006 2.015 4.438 6.676 6.17 10.523 2.812 3.907-3.021.938-7.779 1.892-12.808.749.239 2.347.801 3.054.873-2.784.962 3.991 11.146-5.286 15.473a9.46 9.46 0 0 1-7.217.279c-5.201-1.945-7.968-8.748-4.642-13.583 1.403-2.041 5.436-4.251 5.714-6.041"/><path fill="#f7daa5" d="M264.898 88.437c.35-.242 1.951-5.08 2.986-6.516 2.558-3.547 10.896-7.78 14.737-4.859-.718.71-1.856 1.684-2.232 2.56l.128.534c.874.861 1.25 1.274 2.318 1.94 1.467.886 3.304 1.926 4.704 2.853 1.094.612 1.931 1.097 3.1 1.584 1.779-1.057 1.874-1.737 1.567-3.555 4.47 1 4.239 8.055 3.491 11.603-1.857 8.796-10.078 14.25-18.887 12.344-1.962-.425-4.723-2.39-6.246-2.594l-.331 1.74c-.543-7.31-.501-11.821-5.335-17.634"/><path fill="#f8bb47" d="M282.835 82.096c1.467.886 3.304 1.926 4.704 2.853-1.436 4.807 1.325 15.068-9.137 12.99-2.116-.42-3.635-2.46-4.576-4.287-.153-7.245 3.003-6.281 7.434-9.984.161-.135 1.339-1.34 1.575-1.572"/><path fill="#f1ead6" d="M276.412 89.129c1.7.731 1.625 3.88 1.414 5.479l-.618.395c-.827-.775-1.576-1.887-2.26-2.815.526-1.401.682-1.752 1.464-3.06"/><path fill="#d97a24" d="M280.517 80.156c.874.861 1.25 1.274 2.318 1.94-.236.233-1.413 1.437-1.575 1.572-4.431 3.703-7.587 2.739-7.434 9.984.941 1.827 2.46 3.867 4.576 4.287 10.462 2.078 7.701-8.183 9.137-12.99 1.094.612 1.932 1.097 3.1 1.584-2.282 3.03.571 9.538-4.48 12.71-7.624 4.718-16.555-.755-14.802-9.85 1.089-5.644 8.314-5.925 9.16-9.237"/><path fill="#f1ead6" d="M332.315 145.268c3.148.42 6.382 1.697 9.975 2.213.017 1.73.12 3.104.273 4.83.097-1.453.067-2.551.62-3.895.758.454.707 3.671.833 4.632.289 9.224.055 19.494.064 28.788l.03 56.363-.003 18.478c0 1.372-.286 7.403.22 8.113l.407.198c-.262.077-1.793.066-2.163.069-2.53.548-5.435.704-8.032 1.01-.88.006-1.228.025-2.082-.131-.303-.417-.32-.423-.32-.946z"/><path fill="#79947c" d="M342.563 152.311c.097-1.453.067-2.551.62-3.895.758.454.707 3.671.833 4.632.289 9.224.055 19.494.064 28.788l.03 56.363-.002 18.478c0 1.372-.287 7.403.219 8.113l.407.198c-.262.077-1.793.066-2.163.069-.309-6.164-.072-14.218-.067-20.505l-.025-36.241.02-35.672c-.006-6.417-.217-13.996.064-20.328"/><path fill="#f1ead6" d="M308.483 145.156c3.465.742 6.42 1.696 10.022 2.227.27 4.792.147 10.724.145 15.577l-.02 25.221-.019 79.47-8.609.963c-.988-.092-.885.078-1.492-.448-.509-31.452.123-63.042-.161-94.505-.084-9.45-.042-19.058.134-28.505m-11.734 2.275c3.314-.342 6.61-1.417 9.81-2.352.643 41.03-.089 82.726.151 123.81-2.583.524-6.8.846-9.541 1.13l-.384-.284c-.317-1.319-.159-8.248-.156-10.069l.006-23.845-.031-50.135c-.059-12.248-.334-26.087.145-38.255m-12.029-2.163c3.225.787 6.498 1.659 9.782 2.104.513 16.276-.033 32.735.137 49.028.256 24.633-.359 49.432-.017 74.048-1.859-.137-7.818.632-9.994.863zm59.535 2.297c3.76-.534 6.535-1.395 10.192-2.368q.067 12.569-.042 25.138l.081 59.997-.05 17.387c-.011 2.41-.2 8.825.312 10.876-.579 1.837-1.136 3.718-1.837 5.51q-4.082.495-8.177.883l-.407-.198c-.506-.71-.219-6.741-.219-8.113l.002-18.478-.03-56.363c-.009-9.294.225-19.564-.064-28.788q.226-2.737.239-5.483m-23.835-.161c3.518-.369 6.549-1.29 9.964-2.188.409 27.712-.12 55.821.091 83.558.092 12.345-.325 25.349.098 37.636-2.377.336-4.815.556-7.206.801-.743-.103-2.126.02-2.931.059.254-10.492-.055-22.476-.055-33.086zm36.023-1.909c10.222 27.667 11.859 60.768 5.541 89.498-1.33 6.221-3.281 13.399-5.58 19.336-.679-1.089-.432-6.037-.434-7.495l.019-17.376.036-65.107c-.016-2.632-.467-17.476.418-18.856m-76.566.205c1.03-.123 1.792-.335 2.725.045.442 1.886.272 11.603.286 14.268a1996 1996 0 0 1-.039 37.911c-.047 6.823.632 71.886-.417 73.913-.198-.084-.916-.435-.974-.577-1.114-2.593-1.208-3.581-3.067-5.674-.371-18.897-.128-38.93-.039-57.881 4.108-4.296 3.852-8.153.039-12.427q-.164-14.632-.098-29.265c-.011-5.811-.103-11.66-.005-17.467.03-1.685.292-1.652 1.589-2.846"/><path fill="#79947c" d="M72.327 141.994c10.79 4.568 11.4.058 21.864.034 3.282.069 8.014 2.531 11.221 1.973 5.092-.887 7.946-1.979 13.305-1.973.453-.401.43-1.505.525-2.268.196 2.82.254 3.199 1.51 5.769 1.829 2.26 1.452 5.157 1.416 7.986-.174 13.943.141 27.94-.078 41.878-4.42 4.504-3.862 8.012-.032 12.613q.159 19.551.057 39.103c-.003 5.77.215 12.134-.173 17.892-.061.897-1.045 2.238-1.581 2.981-.172.376-1.155 2.917-1.211 3.006.087 3.478.613 5.229 2.896 7.892q.159 4.744.076 9.49c-1.396.115-2.784.259-4.182.24-1.518.414-3.854.76-5.428.86-1.89.144-3.279.261-5.138.59-1.462.169-2.279.247-3.768.253-2.474.262-5.314.493-7.747.866-1.286.122-3.065.347-4.315.386-2.53.284-6.297.59-8.71 1.022-1.055.142-1.923.2-2.977.267q-4.073.476-8.16.793c-1.562.571-2.46-.103-3.516.395l-3.82.368c-2.112-3.766-4.806-7.222-7.071-11.411-.764-.863-.913-.946-1.256-2.006-3.847-6.927-8.37-15.24-10.535-22.893-.82-1.378-1.289-2.196-1.66-3.766a162.2 162.2 0 0 1-.365-107.549c.316-1.386 1.143-3.461 1.654-4.862 1.828.033 5.386.968 7.197 1.503 3.668 1.569 6.592 2.749 10.654 2.997.397.024.418.047.835.142-.119.062 3.504-.964 3.767-1.043-.05.077 4.364-3.221 4.746-3.528"/><path fill="#f1ead6" d="M43.474 146.785c.316-1.386 1.143-3.461 1.654-4.862 1.828.033 5.386.968 7.197 1.503 3.668 1.569 6.592 2.749 10.654 2.997.397.024.418.047.835.142-1.554.402-4.168.79-5.833.982-.344 6.989.09 14.617-.335 21.384l.057 75.507c.003 4.661.604 35.717-.413 38.561-.764-.863-.913-.946-1.256-2.006-3.847-6.927-8.37-15.24-10.535-22.893-.82-1.378-1.289-2.196-1.66-3.766a162.2 162.2 0 0 1-.365-107.549"/><path fill="#f1ead6" d="M43.474 146.785c.624.742.634 1.166.642 2.166.064 7.578.07 15.191.086 22.767l.016 46.688.02 24.559c.003 1.846.3 10.25-.4 11.369a162.2 162.2 0 0 1-.364-107.549"/><path fill="#7c957a" d="M43.474 146.785c.316-1.386 1.143-3.461 1.654-4.862 1.828.033 5.386.968 7.197 1.503 3.668 1.569 6.592 2.749 10.654 2.997.397.024.418.047.835.142-1.554.402-4.168.79-5.833.982-.344 6.989.09 14.617-.336 21.384-.653-5.418.096-12.963-.056-18.546-.032-1.202.647-2.263-.733-2.753-1.056 1.32-.405 5.592-.647 7.927l-.036.326c-.211-2.724-.235-5.51-.298-8.245-3.714-.694-6.23-1.416-9.862-2.621-.47 8.933-.172 19.682-.21 28.772l-.048 59.427c.002 3.428.392 22.945-.257 24.882-.82-1.378-1.288-2.196-1.66-3.766.7-1.119.402-9.523.4-11.369l-.02-24.559-.016-46.688c-.016-7.576-.022-15.189-.086-22.767-.008-1-.018-1.424-.642-2.166"/><path fill="#79947c" d="m56.173 155.885.036-.325c.242-2.336-.409-6.608.647-7.928 1.38.491.7 1.551.733 2.753.152 5.583-.597 13.128.057 18.546l.057 75.507c.003 4.661.604 35.717-.413 38.561-.764-.862-.913-.946-1.256-2.006l.405-.217c-.582-3.607-.35-11.235-.342-15.207l.04-26.433.027-56.469c.005-8.864-.138-17.936.009-26.782"/><path fill="#f1ead6" d="M67.58 145.522c1.26 3.177.547 95.943.502 106.146-.927 1.186-1.46.17-2.084 1.275.345 1.722 2.064 3.637 2.017 4.422-.26 4.389.636 34.726.165 36.677l-3.82.368c-2.11-3.766-4.805-7.222-7.07-11.411 1.017-2.844.416-33.9.413-38.561l-.058-75.507c.426-6.767-.008-14.395.336-21.384 1.664-.192 4.28-.58 5.833-.982-.119.062 3.504-.964 3.767-1.043m49.868-.181c1.07.097 2.224.134 3.303.188 1.829 2.26 1.452 5.157 1.416 7.986-.174 13.943.141 27.94-.078 41.878-4.42 4.504-3.862 8.012-.032 12.613q.159 19.551.057 39.103c-.003 5.77.215 12.134-.173 17.892-.061.897-1.045 2.238-1.581 2.981l-.338.07c-.235-.343.149-5.522.042-6.696-.382-4.214-2.241-7.854-2.525-12.04-.331-4.881-.093-9.944-.098-14.847q-.124-13.868.074-27.735c.028-2.54.029-5.1-.021-7.64-.346-17.904.143-35.858-.046-53.753M69.864 259.107c3.591 3.379 5.763 4.236 9.95 6.635.866.754.477.601 1.548.835l.474-.262c-.06 1.606-.437 7.592.198 8.739-.7.275-1.332.567-2.072.695-.971.373-1.751.518-2.275 1.356.184 1.23 1.267 2.162 2.17 3.209.51 1.372.53 1.5 2.015 1.917-.066 1.895-.432 8.544.172 10.069l.79.287c-1.055.142-1.923.2-2.977.267q-4.073.476-8.16.793c-.77.031-1.085.098-1.82-.167-.296-1.032-.134-9.095-.124-10.687z"/><path fill="#8a9f8a" d="M79.857 280.314c.51 1.372.53 1.5 2.015 1.917-.066 1.895-.432 8.544.172 10.069l.79.287c-1.055.142-1.923.2-2.977.267-.113-3.704-.304-8.881 0-12.54m-.043-14.572c.866.754.477.601 1.548.835l.474-.262c-.06 1.606-.437 7.592.198 8.739-.7.275-1.332.567-2.072.695-.206-2.874-.12-7.035-.148-10.007"/><path fill="#f1ead6" d="M81.836 266.315c4.022.187 5.76.301 9.778-.264.02 2.335.006 4.778.063 7.105-3.238.186-6.641.548-9.643 1.898-.635-1.147-.259-7.133-.198-8.739m.036 15.916c1.333.504 3.487 1.781 4.953 2.508 1.737.86 3.426 1.26 4.877 1.948-.13 1.706-.15 3.161-.158 4.878-2.53.284-6.297.59-8.71 1.022l-.79-.287c-.604-1.525-.238-8.174-.172-10.069m36.068 6.379c-.892-3.228-.904-14.483.711-17.706l.499.084c.087 3.479.613 5.229 2.896 7.892q.16 4.743.076 9.491c-1.396.114-2.784.258-4.182.239"/><path fill="#f1ead6" d="M99.922 286.33c.665-.044 2.708-.442 3.567-.545l.117 4.528c-2.474.262-5.314.493-7.747.866-1.286.122-3.065.347-4.315.386.009-1.717.028-3.172.158-4.878 1.176.214 5.901-.59 8.22-.357"/><path fill="#8a9f8a" d="M91.702 286.687c1.176.214 5.901-.59 8.22-.356-1.617.375-4.612.464-6.355.492-.036 1.531-.309 2.883.406 4.088.727.315 1.102.259 1.886.268-1.286.122-3.065.347-4.315.386.009-1.717.028-3.172.158-4.878"/><path fill="#f1ead6" d="M105.757 285.304c.694-1.05 1.77-1.4 2.944-1.976a214 214 0 0 0 5.222 5.346c-.579.651-.473.465-1.411.796-1.89.144-3.279.261-5.138.59-1.462.17-2.279.247-3.768.253l-.117-4.528.372.362c.875-.198 1.284-.192 1.896-.843"/><path fill="#8a9f8a" d="M105.757 285.304c.004 1.327-.264 3.289.191 4.397.667.336.668.292 1.426.359-1.462.17-2.279.247-3.768.253l-.117-4.528.372.362c.875-.198 1.284-.192 1.896-.843"/><path fill="#f1ead6" d="M69.885 145.404c2.29.259 6.756 1.573 9.94 2.032q.21 36.076-.045 72.153c-.043 2.92-1.604 10.509-1.272 12.174 1.399 7.023 1.382 12.099 1.422 19.298l-.018.334-.342.251c-3.677-.34-6.1-.27-9.72.022zm35.762 2.118c3.689-.405 6.288-1.36 9.775-2.45.333 10.948.138 22.913.129 33.922l-.068 72.048c-4.608 5.115-7.901 8.196-8.753 15.382-1.1-3.485-.458-6.824-.757-10.604 3.761-7.03 4.634-13.124 2.287-20.924a37 37 0 0 0-.503-1.567l-2.205 1.296c.544-8.276.134-21.442.124-29.94zm-12.065-2.409c3.376.979 6.614 2.016 10.112 2.434l.017 61.779-.052 17.058c-.008 2.469-.186 7.478.2 9.641-5.293 4.445-6.929 6.96-8.847 13.469-.53 2.9-.221 6.156-.083 9.123-2.026-4.884-1.245-5.374-1.314-10.478q-.12-12.098-.05-24.197zm-2.572.171.246.043c1.096 1.723.224 77.264.637 85.882-1.274-2.217-2.322-3.958-3.751-6.094-1.546-1.932-4.311-5.129-6.387-6.24.381-23.684-.482-47.613.066-71.437 3.3-.366 6.005-1.27 9.189-2.154m-9.186 97.771c.667.35 1.533 1.461 2.128 2.056 3.948 3.947 5.645 7.64 7.366 12.95-.663-.231-1.853-1.37-2.48-1.851-2.829-2.171-3.702-2.839-7.062-3.832-.072-3.19-.028-6.131.048-9.323m21.381 15.938c.042.025.091.042.125.075.569.579.363 11.444.415 13.144-.855-.913-1.643-1.984-2.414-2.975-1.386-2.031-2.244-3.362-3.435-5.56 1.65-1.57 3.578-3.178 5.309-4.684m-9.311 6.298c.542.103 1.107.097 1.455.579 2.427 3.342 4.437 6.971 7.097 10.163l.006.54c-2.803-1.926-5.544-2.599-8.84-3.178-.074-2.182-.32-6.198.282-8.104m21.203 12.031c.64.646.958 6.387-.1 7.383-1.004-.172-.895-.362-1.798-1.224l-1.914-1.907z"/><path fill="#dadfc9" d="M105.973 255.82c.299 3.78-.343 7.119.757 10.604.156.823.414 9.888.272 10.211-.553-.334-1.186-1.648-1.154-2.191.275-4.697-.891-14.413.125-18.624"/><path fill="#f1ead6" d="M182.98 35.226a169 169 0 0 1 51.99 2.58c8.912 1.85 8.416 1.535 14.514 8.348-.885.92-1.823 1.973-2.822 2.743-.815.663-1.778 1.351-2.374 2.187.81.908 1.205 1.341 2.137 2.113q2.268 2.1 4.59 4.14c1.169 1.013 1.447 1.443 2.931 1.818l-.916.164c-1.272 1.977-.843 6.16-3.07 9.322l-2.897-.814c-1.038-.018-2.029.023-3.064.06-1.554-1.62-2.08-3.457-4.161-5.318-1.114-.728-1.873-1.003-3.09-1.514-.932-.198-1.906-.3-2.855-.42-2.438-.04-3.129.042-5.519.668-1.768.933-2.249 1.243-3.808 2.492-7.949-4.101-14.333-.333-16.396 8.073-5.232 4.649-6.39 10.577-.509 15.495l-.028 33.619c-19.575-.841-71.193.95-85.017 13.622-1.617 1.482-2.693 3.05-3.374 5.156-.095.763-.072 1.867-.525 2.268-5.36-.006-8.213 1.086-13.305 1.973-3.207.558-7.94-1.904-11.221-1.973-10.465.024-11.075 4.534-21.864-.034-.382.307-4.796 3.605-4.746 3.528-.263.079-3.886 1.105-3.767 1.043-.417-.095-.438-.118-.835-.142-4.062-.248-6.986-1.428-10.654-2.997-1.81-.535-5.369-1.47-7.197-1.503l2.062-5.289c.917-2.49 5.4-12.092 6.737-13.894.86-1.012 1.855-.928 3.19-1.07 1.818-.271 3.748-.707 5.56-1.081q1.66-.339 3.318-.696c.907-2.404-.579-2.071-1.392-5.137a18 18 0 0 1-.354-1.687c.507-.701 1.722-.874 2.608-1.12 9.852-2.741 19.148-6.212 28.586-10.117.503 1.376 1.055 2.167.85 3.448.074 1.565.116 2.636 1.693 3.389.728-.421 1.98-.839 2.808-1.152 1.677-.655 3.477-1.519 5.131-2.27.761-.294 2.059-1.089 2.82-1.52l.216-1.081c-.311-.925-1.648-1.872-2.383-2.904l-1.412-2.401c2.83-1.641 6.556-3.362 9.572-5.012a209 209 0 0 0 19.996-12.213l1.645 3.012c-.028 1.43-.015 1.82.96 2.864q.224.238.456.466c1.271-.336 1.919-.853 3.021-1.558 1.725-1.352 2.92-2.146 4.783-3.318l2.487-1.57c.1-1.96-.6-2.292-2.203-3.164-.681-.682-1.782-2.204-2.41-3.02 7.402-5.323 14.408-11.61 21.032-17.878 1.525-1.442 3.268-3.288 4.942-4.505.863.11.751.252 1.551.962 1.145 1.545 1.139 3.533 3.173 3.708 1.124-.673 1.557-1.173 2.462-2.083.923-1.161 2.507-2.784 3.546-3.916 1.017-1.162 1.61-1.75 2.297-3.139-.036-.523-.05-.396-.283-.907-1-.761-1.262-.77-2.502-1.141l-2.848-2.22a201 201 0 0 0 6.137-7.483"/><path fill="#f7daa5" d="M145.883 76.848c2.059-3.498 8.508-1.165 11.197.585 11.876 7.73 8.045 26.015-5.842 28.609-9.005 1.783-16.358-4.379-18.218-12.94-.63-3.47-.399-8.475 3.359-9.974-.028 1.43-.015 1.82.96 2.864q.224.238.456.466c1.271-.336 1.919-.853 3.021-1.558 1.725-1.352 2.92-2.146 4.783-3.318l2.487-1.57c.1-1.96-.6-2.292-2.203-3.164"/><path fill="#f8bb47" d="M145.599 81.582c.696.269.739.365 1.23.947 2.216 2.628 9.441 3.16 8.241 8.173-.105 2.074-.507 3.609-2.122 5.076a6.5 6.5 0 0 1-5.031 1.632c-1.94-.202-3.456-1.163-4.632-2.695-1.797-2.8-.522-5.573-2.469-9.815 1.725-1.352 2.92-2.146 4.783-3.318"/><path fill="#f8ca68" d="M144.952 93.152c.228-.336.282-.323.61-.587 1.994-.197 4.077-.624 5.308 1.33.211 2.44-.749 1.224-1.969 2.74l.509.203c3.958-.732 4.537-2.69 5.362-6.14l.298.004c-.105 2.074-.507 3.609-2.122 5.076a6.5 6.5 0 0 1-5.031 1.632c-1.94-.202-3.456-1.163-4.632-2.695.862-.625 1.07-.714 1.667-1.563"/><path fill="#f1ead6" d="M144.952 93.152c1.409-.155 4.355-.159 5.285 1.05l.048.832c-2.152.788-4.836.966-5.333-1.882"/><path fill="#dd7f23" d="m145.599 81.582 2.487-1.57c1.579 1.792 4.644 2.581 6.719 3.997 4.245 2.895 3.888 10.175.406 13.563a9.15 9.15 0 0 1-6.803 2.574c-1.933-.078-4.719-.756-6.524-2.624-2.792-2.89-2.018-7.63-3.22-10.967l-.869-.097c1.271-.336 1.919-.853 3.021-1.558 1.947 4.242.672 7.016 2.469 9.815 1.177 1.532 2.692 2.493 4.632 2.695a6.5 6.5 0 0 0 5.031-1.632c1.615-1.467 2.017-3.002 2.122-5.076 1.2-5.014-6.025-5.545-8.241-8.173-.491-.582-.534-.678-1.23-.947"/><path fill="#f7daa5" d="M106.578 99.742c2.358.034 4.524-.057 6.684.838 10.966 4.543 12.482 18.248 3.897 25.959-10.59 9.511-26.004 1.296-25.525-12.168.16-2.906 1.195-6.582 3.2-8.762.722-.28.692-.288 1.46-.329.073 1.565.115 2.636 1.692 3.389.728-.421 1.981-.839 2.808-1.152 1.677-.655 3.477-1.519 5.131-2.27.761-.294 2.059-1.089 2.82-1.52l.216-1.081c-.311-.924-1.648-1.872-2.383-2.904"/><path fill="#d97a24" d="M108.745 103.727c.523 2.809 4.203 3.45 5.854 5.592 2.466 3.199 2.234 7.992-.036 11.193a9.02 9.02 0 0 1-6 3.76c-5.399.799-10.47-2.853-10.508-8.286-.012-1.77.437-6.067-.07-7.317.729-.421 1.982-.839 2.809-1.152 1.677-.655 3.477-1.519 5.131-2.27.761-.294 2.059-1.089 2.82-1.52"/><path fill="#f8ca68" d="M100.659 115.274c.571-1.256.549-2.191 1.481-2.873l.582.48c6.636-.984 6.521 2.482 9.517 2.151.952-.787.651-.444.987-1.875.251 1.367.331 1.785.313 3.209-.957 2.617-1.521 3.484-4.12 4.78l-.342.174-.208.101c-4.577.76-7.844-1.391-8.21-6.147"/><path fill="#f1ead6" d="M103.089 115.93c1.566.421 3.872 1.175 4.19 3.008-1.003 1.197-2.669.198-3.661-.515l-.8-.576z"/><path fill="#f8bb47" d="M100.794 107.517c1.677-.655 3.477-1.519 5.131-2.27.455.563 1.307 1.619 1.834 2.057 1.792 1.485 5.506 3.15 5.467 5.853-.336 1.431-.035 1.088-.987 1.875-2.996.331-2.881-3.135-9.517-2.151l-.582-.48c-.932.682-.91 1.617-1.481 2.874.063-3.364.946-3.68.135-7.758"/><path fill="#f7daa5" d="M64.603 114.756c4.77 1.536 8.39 3.483 10.815 8.148a16.07 16.07 0 0 1 1.145 12.272c-1.143 3.567-2.863 4.365-4.236 6.818-.382.308-4.796 3.605-4.746 3.528-.263.079-3.886 1.105-3.767 1.043-.417-.094-.438-.118-.835-.142-4.062-.248-6.986-1.427-10.654-2.997-1.81-.535-5.369-1.47-7.197-1.503l2.062-5.289c.917-2.49 5.4-12.092 6.737-13.893.86-1.013 1.855-.929 3.19-1.071 1.818-.271 3.748-.707 5.56-1.08q1.66-.34 3.318-.697c.907-2.404-.579-2.071-1.392-5.137"/><path fill="#f8bb47" d="M57.116 121.67c1.819-.271 3.75-.707 5.56-1.081.864.902.854 2.496 1.393 3.126 2.063 2.413 4.346 3.401 4.192 7.168a6.25 6.25 0 0 1-2.1 4.373c-4.686 4.224-11.93.533-10.915-5.665.546-3.328 2.035-4.034 1.87-7.921"/><path fill="#f1ead6" d="M57.067 130.332c2.108.349 3.993 2.218 3.74 4.45-2.32.136-3.804-2.439-3.74-4.45"/><path fill="#d97a24" d="M65.995 119.893c.348 4.506 5.995 4.955 4.84 11.893a9.7 9.7 0 0 1-2.137 4.659c-5.316 6.302-15.864 3.396-16.138-5.348-.07-2.223 1.981-7.291 1.367-8.357.86-1.012 1.855-.928 3.19-1.07.164 3.887-1.325 4.593-1.87 7.921-1.017 6.198 6.228 9.889 10.914 5.665a6.25 6.25 0 0 0 2.1-4.373c.154-3.767-2.129-4.755-4.192-7.168-.539-.63-.53-2.224-1.393-3.126q1.662-.339 3.319-.696"/><path fill="#f1ead6" d="M47.19 136.634c.49.432.833.762 1.037 1.403.522 1.633 3.523 4.342 4.098 5.389-1.81-.535-5.369-1.47-7.197-1.503z"/><path fill="#f7daa5" d="M180.179 50.116c1.016-1.162 1.61-1.75 2.297-3.139 1.233 3.589 8.52.736 11.414 7.585q.091.217.175.439c1.297-1.953 4.361-.537 5.945-1.861 1.99 4.092.846 8.193-.799 12.195-1.767 4.067-4.848 6.077-8.734 7.693-12.153 5.057-25.3-8.937-19.479-20.62 1.145 1.544 1.139 3.532 3.173 3.707 1.124-.673 1.557-1.173 2.462-2.083.923-1.161 2.507-2.784 3.546-3.916"/><path fill="#f8bb47" d="M180.179 50.116c1.017-1.162 1.61-1.75 2.297-3.139 1.233 3.589 8.52.736 11.414 7.585q.091.217.175.439c2.867 14.428-15.357 18.251-18.532 2.741-.349-1.106-.355-1.241-1.362-1.627 1.124-.673 1.557-1.173 2.462-2.083.923-1.161 2.507-2.784 3.546-3.916"/><path fill="#d97a24" d="M180.179 50.116c1.017-1.162 1.61-1.75 2.297-3.139 1.233 3.589 8.52.736 11.414 7.585q.091.217.175.439c2.867 14.428-15.357 18.251-18.532 2.741 1.001.25 2.235.743 3.063.39.527 2.468 1.008 4.4 3.276 5.874 3.17 2.06 7.604.55 9.385-2.57a6 6 0 0 0 .533-4.834c-1.725-5.265-6.904-3.948-11.226-6.276z"/><path fill="#d97a24" d="M176.633 54.032c.719 1.3 1.583 2.68 1.963 4.1-.828.353-2.062-.14-3.063-.39-.349-1.106-.355-1.241-1.362-1.627 1.124-.673 1.557-1.173 2.462-2.083"/><path fill="#f1ead6" d="M181.744 60.044c1.566-.16 3.854-.104 5.064.975.189.957.214.568-.339 1.572-2.643 1.794-3.935 0-4.725-2.547"/><path fill="#f7daa5" d="M228.374 61.304q.019-.19.044-.381c-1.656-5.52 2.847-10.382 7.565-12.637 2.121-1.015 6.721-2.56 9.29-1.349 1.049.495.958.87 1.389 1.96-.815.663-1.778 1.351-2.374 2.188.81.907 1.205 1.34 2.137 2.112q2.268 2.1 4.59 4.14c1.169 1.013 1.447 1.443 2.931 1.818l-.916.164c-1.272 1.977-.843 6.16-3.07 9.322l-2.897-.814c-1.038-.018-2.029.023-3.065.06-1.553-1.62-2.079-3.457-4.16-5.318-1.114-.728-1.874-1.003-3.09-1.514-.932-.198-1.906-.3-2.855-.42-2.438-.039-3.129.042-5.519.669"/><path fill="#f8bb47" d="M246.425 53.197q2.269 2.1 4.59 4.14c1.169 1.013 1.447 1.443 2.931 1.818l-.916.164c-1.272 1.977-.843 6.16-3.07 9.322l-2.897-.814c-1.038-.018-2.029.023-3.064.06-1.553-1.62-2.079-3.457-4.161-5.318-1.114-.728-1.873-1.003-3.09-1.514.187-1.22.607-1.904 1.144-3.008 1.503-1.803 4.206-1.919 6.223-2.993.774-.413 1.656-1.252 2.31-1.857"/><path fill="#d97a24" d="M251.015 57.336c1.169 1.014 1.447 1.444 2.931 1.82l-.916.163c-1.272 1.977-.843 6.16-3.07 9.322l-2.897-.814c2.304-2.034 1.597-6.976 3.952-10.49"/><path fill="#f8ca68" d="M240.884 59.498c3.332 1.74 4.662 4.303 3.529 7.996l-.414.392c-1.554-1.618-2.08-3.456-4.161-5.317.309-.719.776-2.27 1.046-3.07"/><path fill="#f7daa5" d="M237.892 58.048c1.447.283 2.107.238 2.992 1.45-.27.801-.737 2.353-1.046 3.071-1.114-.728-1.873-1.003-3.09-1.514.187-1.22.607-1.904 1.144-3.007"/><path fill="#d97a24" d="M233.893 60.634c1.177-8.368 10.395-6.357 10.395-9.55.81.908 1.205 1.341 2.137 2.113-.654.605-1.536 1.444-2.31 1.857-2.017 1.074-4.72 1.19-6.223 2.994-.537 1.103-.957 1.787-1.144 3.007-.932-.198-1.906-.3-2.855-.42"/><path fill="#f7daa5" d="M179.691 44.929c4.463-4.576 12.545-1.804 16.601 2.093 1.942 1.869 2.769 3.638 3.718 6.118-1.584 1.324-4.648-.092-5.945 1.861a14 14 0 0 0-.175-.44c-2.894-6.848-10.181-3.995-11.414-7.583-.036-.525-.05-.397-.283-.908-1-.761-1.262-.77-2.502-1.141"/><path fill="#d89137" d="M126.096 210.801c1.962.792 3.257 1.436 5.14 2.423 3.113.65 7.897 2.504 11.6 3.441 1.544.309 3.572.658 5.055 1.051 6.708 1.25 12.425 1.949 19.135 2.862 1.694.131 4.831.279 6.365.665q2.82.161 5.636.372 7.82.439 15.65.577c10.513.135 29.074-1.293 38.378 3.466 3.048 1.558 2.38 19.876 2.296 23.717-.161 7.503.434 16.041-.019 23.566a34 34 0 0 1-.346 3.192c-13.849 2.388-28.736 3.067-42.701 4.832-3.996.504-8.777 1.149-12.769 1.308-2.924.345-7.546.982-10.462 1.021-2.538.473-14.358 1.976-16.701 1.759-8.334-.977-16.997-3.418-24.432-7.353-3.072-1.625-6.064-3.968-3.777-7.542l1.296-1.906c1.16-1.542.729-18.223.727-21.201z"/><path fill="#254746" d="M179.027 221.615q7.82.44 15.65.577c10.513.135 29.074-1.293 38.378 3.466 3.048 1.558 2.38 19.876 2.296 23.717-.161 7.503.434 16.041-.019 23.566a34 34 0 0 1-.346 3.193c-13.849 2.387-28.736 3.066-42.701 4.831-3.996.504-8.777 1.149-12.769 1.308a40 40 0 0 0-.347-4.03c1.017-.604 1.845-.815 2.102-1.709.579-2.485-.084-2.683-2.078-3.943.366-2.92.223-40.374-.201-41.501.268-.642.416-.769.839-1.312 1.001-.661 1.137-.851 1.31-2.004-.301-.927-.392-.956-1.131-1.643-.984-.888-.877-3.097-.983-4.516"/><path fill="#1d3b3b" d="M191.591 258.417q.246.001.492.005c1.194.034 1.37.109 2.091.869.211 1.124.117 1.272-.151 2.421-1.973-.384-2.391-1.422-2.432-3.295"/><path fill="#254746" d="M126.096 210.801c1.962.792 3.257 1.436 5.14 2.423 3.113.65 7.897 2.504 11.6 3.441-.393 19.712.346 39.812-.01 59.46-4.495-1.369-7.586-2.093-11.796-4.314-1.771-.734-4.072-2.404-5.59-3.559 1.16-1.542.729-18.223.727-21.201z"/><path fill="#b64f31" d="M126.096 210.801c1.962.792 3.257 1.436 5.14 2.423-.018.943.109 2.188-.429 2.878l-.167.069c1.126 2.934-1.392 1.081.726 4.754-.016.377-.019.93-.065 1.288-.449 9.289.051 19.235-.041 28.573-.016 1.539.197 9.584.005 10.717.541 1.6-.978 2.441.16 5.341l-.346.851c.002 1.141.051 3.037-.049 4.116-1.771-.734-4.072-2.404-5.59-3.559 1.16-1.542.729-18.223.727-21.201z"/><path fill="#151411" d="M131.079 267.695c-3.084-2.181-3.664-4.617.186-6.192.541 1.6-.978 2.441.16 5.341zm.222-45.482c-3.11-1.538-3.884-4.04-.662-6.042 1.127 2.934-1.391 1.081.727 4.754-.016.377-.019.93-.065 1.288"/><path fill="#254746" d="M167.026 220.578c1.694.131 4.831.279 6.366.665-.214 6.625-.027 14.4-.023 21.13l-.02 39.243c-2.16-.401-3.967-.559-6.142-.762-.478-19.718.079-40.393-.181-60.276"/><path fill="#b64f31" d="M142.836 216.665c1.544.309 3.572.658 5.055 1.051-.163 19.656.58 40.219-.132 59.82-1.626-.337-3.498-.626-4.933-1.411.356-19.648-.384-39.748.01-59.46"/><path fill="#b64f31" d="M124.144 270.158c11.751 7.707 21.175 9.749 34.87 12.037 3.12.523 6.94 1.283 10.04 1.099-2.538.473-14.358 1.976-16.701 1.759-8.334-.977-16.997-3.417-24.432-7.353-3.072-1.625-6.064-3.968-3.777-7.542"/><path fill="#d89137" d="m178.176 273.334 1.017-.743c1.994 1.261 2.657 1.458 2.078 3.943-.926.376-1.338.357-2.196-.078-.698-1.015-.709-1.892-.899-3.122m1.834-47.203c.739.687.83.716 1.131 1.643-.173 1.153-.309 1.343-1.31 2.004-.757-.226-.833-.327-1.478-.756-.528-.834-.4-1.165-.339-2.214.396-.085 1.428-.524 1.996-.677"/><path fill="#2d2819" d="M178.175 273.334c.191 1.23.202 2.107.9 3.122.858.435 1.27.454 2.196.078-.257.894-1.085 1.105-2.102 1.709-2.354-1.319-3.22-2.811-.994-4.909m-.161-46.526c-.061 1.049-.189 1.38.339 2.214.645.429.721.53 1.478.756-.423.543-.571.67-.839 1.312-1.455-.7-2.311-1.645-2.11-3.362.588-.878.203-.607 1.132-.92"/><path fill="#151411" d="m152.642 269.285.844.125.2.381c-.7.682-1.033 1.033-1.631 1.803.035 1.757 1.693 1.729 2.674 3.243-4.232.342-6.158-3.699-2.087-5.552m-.313-46.781c.625.089.781.193 1.356.438l.074.403c-.888.761-1.579 1.12-1.55 2.317.869 1.32 1.364.984 2.343 2.011-3.294 1.202-5.936-2.623-2.223-5.169"/><path fill="#d89137" d="m126.113 150.019 3.804 1.743 1.321.715c1.966.589 10.905 3.407 12.473 3.378l-.071.144 4.911 1.031c5.952 1.255 12.46 1.996 18.546 2.594 2.274.167 4.036.257 6.266.763 1.916.081 3.902.129 5.8.355q11.544.414 23.093.353c7.236-.051 17.005-.726 24.192-.087 2.847.254 7.868 5.456 8.274 8.743 1.18 9.544.384 19.938.612 29.607.084 2.994-.821 10.686-4.67 11.096-1.202.549-2.363 1.051-3.512 1.709l-.331.121c-1.943 1.541-4.234 2.618-6.463 3.717-1.865.687-3.652 1.182-5.614 1.493-17.759 2.81-74.485-1.186-88.556-11.68-1.272-.949-2.59-2.377-2.731-4.04-.115-1.366.779-2.342 1.551-3.357l.899-1.136c.527-.705.272-11.443.274-13.35q.057-16.957-.068-33.912"/><path fill="#254746" d="M179.163 160.742q11.544.414 23.093.353c7.236-.051 17.005-.726 24.192-.087 2.847.254 7.868 5.456 8.274 8.743 1.18 9.544.384 19.938.612 29.607.084 2.993-.821 10.686-4.67 11.096-1.16-.609-11.208.177-13.195.276a371 371 0 0 1-25.848.347c-3.922-.076-8.431-.077-12.29-.512-.041-1.478.13-2.797-.732-3.845.33-.191.862-.595 1.194-.829l-.031-.269c2.97-.987 1.543-2.912-.434-3.997-.054-4.937.582-28.748-.389-31.773.693-.866 1.97-.671 2.685-1.674l-.249-.524c.092-2.252-.267-2.274-1.977-3.573zm-53.05-10.723 3.804 1.743 1.321.715c1.966.589 10.905 3.407 12.473 3.378l-.071.144-.703.307c-.339 1.368-.216 2.64-.286 3.723-.325 5.052.975 43.248-.114 44.959-4.29-1.306-7.532-2.301-11.596-4.159-2.455-.999-3.236-2.649-5.034-3.548.527-.705.272-11.443.274-13.35q.057-16.957-.068-33.912"/><path fill="#b64f31" d="m126.113 150.019 3.804 1.743 1.321.715c-.047.801-.067 2.288-.279 2.989.225.667.351.632.226 1.135a3.236 3.236 0 0 1 .35 3.938c-.027.682.043.481-.194 1.089-.126 3.213.301 28.469-.396 29.413l-.234.074c.388.759.383.689.257 1.474-.357 2.218 1.02 2.588.246 4.898-.047 1.248-.058 2.099-.273 3.342-2.455-.999-3.236-2.649-5.034-3.548.527-.705.272-11.443.274-13.35q.057-16.957-.068-33.912"/><path fill="#151411" d="M131.341 161.629c-2.921-2.162-4.044-3.997-.383-6.163.226.667.352.632.226 1.135a3.235 3.235 0 0 1 .351 3.938c-.027.682.043.481-.194 1.09"/><path fill="#a7742e" d="M131.184 156.601a3.235 3.235 0 0 1 .351 3.938c-.71-.868-.774-.941-1.215-1.957.108-1.289-.041-.787.864-1.981"/><path fill="#252622" d="M130.71 191.115c.389.759.384.689.258 1.474-.357 2.218 1.02 2.588.246 4.897-1.231-2.056-5.123-3.293-.504-6.371"/><path fill="#b64f31" d="M125.008 198.417c3.608 5.791 17.933 9.334 24.365 10.731 22.628 4.915 46.345 4.482 69.368 3.566 2.38-.094 5.85-.71 8.08-.43-1.943 1.541-4.234 2.618-6.463 3.717-1.865.687-3.652 1.182-5.614 1.493-17.759 2.81-74.485-1.186-88.556-11.68-1.272-.949-2.59-2.377-2.731-4.04-.115-1.366.779-2.342 1.551-3.357"/><path fill="#254746" d="M167.097 159.624c2.274.167 4.036.257 6.266.763l.005 49.657-6.187-.642z"/><path fill="#b64f31" d="m143.64 155.999 4.91 1.031c-.302.221-.578.28-.586.61-.394 16.17.31 32.759-.085 48.907-1.83-.449-3.6-.828-5.342-1.559 1.089-1.711-.211-39.907.114-44.959.069-1.083-.054-2.355.286-3.723z"/><path fill="#2d2819" d="M178.939 169.852c-1.676-.579-2.965-2.581-1.442-4.033.708.971.955 1.293 1.828 2.111 1.057.241.847.11 2.05-.276l.249.524c-.715 1.003-1.992.808-2.685 1.674m-.34 36.868c-1.197-.925-2.288-2.164-1.285-3.783 1.368.698.356 1.454 2.448 2.685l.031.269c-.332.234-.864.638-1.194.829"/><path fill="#151411" d="m152.993 198.047.753.162.094.405c-.865.773-1.426 1.132-1.608 2.189.589 1.011 1.494 1.209 2.563 1.925l-.176.758c-4.459.651-5.898-3.508-1.626-5.439m-.354-36.778c.488.062.598.128 1.069.281l.035.447c-1.311 1.189-1.823 1.169-1.251 2.817.75.779 1.086.765 2.137 1.025l-.016.678c-3.108 1.576-6.478-2.948-1.974-5.248"/><path fill="#b64f31" d="M55.456 295.175a171.65 171.65 0 0 1-25.733-127.246A174 174 0 0 1 103.19 56.302a173.54 173.54 0 0 1 130.836-26.627c43.026 8.401 84.721 35.935 109.16 72.386a173.73 173.73 0 0 1 27.022 132.198c-2.143 10.727-4.776 18.673-8.452 28.755l-5.099.83c3.963-10.403 5.427-15.357 8.16-26.226-1.085-1.267-2.346-1.619-2.833-2.625 6.318-28.73 4.681-61.831-5.541-89.498-.234-1.368-.885-2.772-1.406-4.079-3.679-9.969-9.763-22.129-15.719-30.928-.746-1.452-2.077-3.128-2.967-4.808-.025-2.091-1.559-2.4-2.202-4.575 1.514-4.182-3.579-5.073-4.244-8.971-.796-1.216-4.595-5.49-5.714-6.498-2.872-4.295-15.864-15.344-20.061-18.689-4.448-3.705-7.785-5.878-12.664-9.09a167.07 167.07 0 0 0-106.423-26.236A168.43 168.43 0 0 0 70.974 91.27a168.65 168.65 0 0 0-38.935 125.145 165.3 165.3 0 0 0 18.744 62.235c2.97 5.53 6.386 10.832 9.764 16.122z"/><path fill="#152829" d="M329.905 92.134c5.444 5.88 12.168 15.93 16.176 22.889a169.9 169.9 0 0 1 22.847 93.083c-.323 8.397-1.998 21.404-4.111 29.512-1.085-1.267-2.346-1.62-2.833-2.625 6.318-28.73 4.681-61.831-5.541-89.498-.234-1.368-.885-2.772-1.406-4.079-3.679-9.969-9.763-22.129-15.719-30.928-.746-1.452-2.077-3.128-2.967-4.808-.025-2.091-1.559-2.4-2.202-4.575 1.514-4.182-3.579-5.073-4.244-8.971"/><path fill="#f1ead6" d="m178.285 35.696.245-.012.113.394c-1.065 1.628-3.24 3.932-4.591 5.452-2.424.012-3.451.797-5.173 2.323-.611 1.928-.662 2.442-.839 4.474-7.062 7.475-17.708 16.974-26.37 23.055-.869.61-3.806.696-5.003 1.247-1.803.83-2.339 2.726-2.984 4.472-7.067 5.842-22.207 13.732-30.442 17.833-4.526-1.026-6.052-.272-8.237 3.801-9.641 4.25-21.52 8.726-31.78 11.193-.968.154-.541.237-1.341-.101-.218-1.361 4.896-7.813 5.945-9.212 27.069-36.118 65.908-58.44 110.457-64.919"/><path fill="#254746" d="M335.349 272.176c.014-1.096-.164-1.425.364-2.246 1.949-.504 6.087-.807 8.239-1.032l14.386-1.511 16.254-1.773c2.961-.331 6.819-.869 9.699-.933l.254.384c-.206 1.072-.29 1.228-.819 2.188-1.074 3.509-2.894 7.358-4.344 10.784-6.772 16.002-15.887 30.569-26.557 44.233-5.728 7.334-11.484 12.68-17.512 19.509.306-7.191.078-15.515.1-22.795z"/><path fill="#d89137" d="M335.349 272.176c.014-1.096-.164-1.425.364-2.246 1.949-.504 6.087-.807 8.239-1.032l14.386-1.511 16.254-1.773c2.961-.331 6.819-.869 9.699-.933l.254.384c-.206 1.072-.29 1.228-.819 2.188-5.288.378-46.287 5.499-48.377 4.923"/><path fill="#152829" d="M367.745 272.972a5.841 5.841 0 1 1-.945 11.644 5.841 5.841 0 0 1 .945-11.644"/><path fill="#b64f31" d="M367.898 275.193a3.61 3.61 0 0 1 3.112 3.292 3.615 3.615 0 0 1-2.561 3.741 3.616 3.616 0 0 1-4.197-1.706 3.62 3.62 0 0 1 .179-3.791 3.61 3.61 0 0 1 3.467-1.536"/><path fill="#d89137" d="M364.252 280.52a3.62 3.62 0 0 1 .179-3.791 3.61 3.61 0 0 1 3.467-1.536c-2.914 2.544-2.243 2.179-3.646 5.327"/><path fill="#f1ead6" d="M232.977 86.476c3.652-.429 4.82.994 8.447-1.944 3.162 1.205 4.222 1.493 7.606.735q-.09 12.18-.005 24.362c.017 7.999-.351 16.393 1.495 24.204.239 1.018.523 2.025.67 3.06-6.418 5.219-20.339 5.429-28.525 4.659-4.347-.663-10.186-1.085-13.504-4.281-.495-.475-.214-2.05-.047-2.702 1.617-6.252 1.467-12.135 1.567-18.581q.215-13.726.005-27.45c5.191-.123 6.532-.083 6.357 5.488q-.009.39-.03.778c.039 1.005.203 3.225-.039 4.07.773 1.972 1.263 2.529 2.905 4.005 6.393 1.378 8.158-1.813 7.952-7.647-.123-1.502.03-3.372.111-4.907-.384-1.292-.417-1.854-.54-3.16.668-.298 1.269-.638 1.909-.986.899.446 2.617.34 3.666.297"/><path fill="#d89137" d="M213.191 93.402c1.267.482 2.536.98 3.822 1.402.039 1.005.203 3.225-.039 4.07.773 1.972 1.263 2.529 2.905 4.005 6.393 1.378 8.158-1.814 7.952-7.647q4.2.145 8.4.003c-.34 7.561-.471 15.119-.51 22.687-.022 4.35-.387 10.426-.027 14.675-6.686.516-16.63.406-22.522-2.932-.214-2.734-.056-8.316-.064-11.236q-.063-12.513.083-25.027"/><path fill="#f1ead6" d="M216.974 98.874c.773 1.972 1.263 2.529 2.905 4.005-.273 4.353.518 10.573-.27 14.652-.64.854-.234.535-1.325.902-.573-.192-.893-.298-1.199-.919-1.13-2.296-.676-16.951-.111-18.64m.192 22.063c3.66.062 3.122 2.972 1.789 5.376-3.209-.257-2.647-3.208-1.789-5.376"/><path fill="#b64f31" d="M240.65 94.582c2.021-.463 3.727-.876 5.709-1.471-.106 11.877-.231 24.571.144 36.43-3.91 2.097-6.379 2.389-10.81 3.056-.359-4.249.006-10.325.028-14.675.039-7.568.17-15.126.51-22.687l1.152-.389c.74.223 2.424-.127 3.267-.264"/><path fill="#d89137" d="M237.383 94.846c.74.223 2.424-.127 3.267-.264.178 6.418-.381 13.491-.478 20.025l-.877-.289c-.287-5.051-1.008-13.636-1.431-19.002q-.243-.234-.481-.47m1.912 19.472.877.289c.008 1.53-.006 2.708-.12 4.234l-.412.237.367.037-.091.375-.217.015c-.446-1.852-.385-3.279-.404-5.187"/><path fill="#d97a24" d="M239.515 121.385c.336.234.381.33.659.639.485 1.749.657 3.57.512 5.379-.915-.28-.565-.034-1.16-.651-.47-1.964-.228-3.376-.011-5.367"/><path fill="#1d3b3b" d="M227.402 87.165c.668-.298 1.269-.638 1.91-.986.899.446 2.616.34 3.665.297-1.648 2.214-2.594 2.563-5.035 3.849-.384-1.292-.417-1.854-.54-3.16m19.895 45.605c.707.072.495.062 1.18.402l.122.567c-.726 1.781-6.24 3.286-8.013 3.564-9.173 1.44-18.319 1.502-27.136-1.789-.985-.487-1.801-.813-1.943-1.974 1.05-.899 5.372.463 7.045.804 10.37 2.113 18.647 1.172 28.745-1.574"/><path fill="#b64f31" d="M295.997 369.1c.696-.08 1.331-.267 1.887.073-.409.634-.838.771-1.483 1.135-43.98 24.922-98.84 32.339-147.729 18.404-2.893-.62-7.239-2.201-10.03-3.195 11.252-.818 22.756-2.179 33.988-3.37l40.998-4.308zM193.244 130.613q6.789-.197 13.576-.062c-.559 2.342-1.809 6.586-.077 8.568 3.133 3.586 9.891 4.598 14.464 5.181 7.439.948 15.371.523 22.7-1.008 3.128-.653 9.468-2.306 9.819-6.252.042-.6.172-1.249.261-1.843 2.951-.325 13.065 3.861 15.648 5.692-10.83 6.823-37.819 8.479-50.855 9.298-5.931.131-14 .603-19.666.525-17.665-.244-53.371-1.554-68.269-9.912 13.508-8.396 46.634-9.715 62.399-10.187"/><path fill="#152829" d="M166.321 144.016c-3.679.484-17.803 2.201-18.364-4.33.262-2.851 5.246-4.158 7.295-4.222 5.062-.157 17.022-1.858 15.871 6.267-1.651 1.479-2.733 1.731-4.802 2.285"/><path fill="#152829" d="m166.321 144.016-.971-.29c.795-1.14 2.837-1.973 4.124-2.38l.531.476.371-.199.155-.792.342.093.25.807c-1.651 1.479-2.733 1.731-4.802 2.285"/><path fill="#d89137" d="M158.016 138.417c4.049-.221 6.966.325 10.847 1.104-3.212 1.345-4.091 1.535-7.573 1.661-4.658.075-6.246-.234-10.576-1.442 2.589-.889 4.597-1.111 7.302-1.323"/><path fill="#b64f31" d="m266.977 213.823 7.459-3.268c-.691 13.041.013 26.549-.184 39.632-.07 4.615.367 12.36-.306 16.593-1.467 1.7-4.337 4.389-6.516 4.973-5.254 2.697-9.371 2.485-15.252 2.986-.233-18.974.011-38.068-.128-57.07 5.386-1.17 9.697-2.178 14.927-3.846"/><path fill="#254746" d="m266.977 213.823 7.459-3.268c-.691 13.041.013 26.549-.184 39.632-.07 4.615.367 12.36-.306 16.593-1.467 1.7-4.336 4.389-6.516 4.973.006-1.138.142-2.493-.292-3.49.704-.473 1.998-1.316 2.396-2.026.34-.59.415-1.297.206-1.945-.32-1.027-1.728-1.951-2.58-2.466.501-3.846.46-37.821-.164-39.073 3.735-2.022 3.941-4.216-.139-5.794.576-1.067.509-2.02.12-3.136"/><path fill="#152829" d="M267.16 261.826c.852.515 2.26 1.439 2.58 2.466a2.4 2.4 0 0 1-.206 1.945c-.398.71-1.692 1.553-2.396 2.026-.996-.498-1.152-.531-1.915-1.305l.156-.431c1.545-.298 2.202-.106 2.572-1.743-.779-1.405-.921-.409-2.051-1.547.359-.918.359-.698 1.26-1.411m-.303-44.867c4.08 1.578 3.874 3.772.139 5.794-.91-.277-.896-.267-1.684-.795l.034-.333c1.068-.46 1.72-.757 2.73-1.335.854-1.426-.548-1.904-1.751-2.417l-.144-.368z"/><path fill="#b64f31" d="M274.21 150.292a2095 2095 0 0 0-.047 30.496c-.014 5.342.172 11.072-.139 16.343-1.35 1.836-4.337 4.03-6.429 4.557-4.239 2.241-10.66 3.734-15.411 4.63-.37-16.084-.042-33.062-.131-49.238 4.119-.781 11.091-2.477 14.99-3.906 2.397-1.019 4.821-1.888 7.167-2.882"/><path fill="#254746" d="M274.21 150.292a2095 2095 0 0 0-.047 30.496c-.014 5.342.172 11.072-.139 16.343-1.35 1.836-4.337 4.03-6.43 4.557-.15-1.3-.205-1.931-.592-3.214 3.674-1.291 3.404-4.489-.148-5.782.437-.721.83-28.092.245-30.134 2.06-.898 3.19-2.649 1.985-4.752-1.125-.771-1.083-.545-2.547-.632.543-1.616.495-2.324.506-4 2.397-1.019 4.821-1.888 7.167-2.882"/><path fill="#152829" d="M266.854 192.692c3.552 1.293 3.822 4.491.148 5.782-.546-.183-1.715-.677-1.837-1.269 1.425-.457 2.752-.522 2.825-2.157-.343-.755-.685-.832-1.428-1.223l-.267-.137-.098-.353zm-.317-35.518c1.464.087 1.422-.139 2.547.632 1.205 2.103.075 3.854-1.985 4.752-.813-.327-1.586-.629-1.987-1.35 1.597-.47 2.942-.567 3.014-2.364-.551-.963-.353-.655-1.486-1.251z"/><path fill="#f1ead6" d="M225.025 67.912c1.642-1.759 2.558-2.867 4.81-3.842a7.86 7.86 0 0 1 6.259-.055c3.424 1.477 4.484 4.31 5.672 7.475 16.638-4.267 10.307 18.204-.559 8.796-3.596 3.848-4.684 4.454-9.519 1.992-.81 1.975-1.024 2.37-2.376 3.901-.641.348-1.242.688-1.91.986-1.074.55-1.416.857-2.354 1.602-.306 3.25.097 6.623-.423 9.83-.245 1.512-1.737 2.211-3.201 1.9-2.678-1.922-1.066-8.301-1.74-11.305-.386-1.736-2.947-3.136-4.378-4.022-4.358 1.045-7.993-.053-8.505-4.945-.721-6.886 7.014-5.59 8.341-7.21.067-1.018.217-.602-.339-1.329-1.111-.58-2.335-.587-3.607-.719 3.033-6.436 8.441-7.612 13.829-3.055m23.972-26.345c18.289 5.343 36.975 15.477 51.985 27.109 1.355-1.202 1.845-.42 3.148-1.729 4.197 3.345 17.189 14.394 20.061 18.69-2.071-.833-1.442-1.999-3.387-2.243l-.688.449c-.025 2.52 6.204 6.353 6.321 8.794l-.462.362-.351-.113c-9.621-3.448-22.285-10.545-31.077-15.555-1.453-4.262-2.992-5.589-7.676-4.963-9.121-5.362-19.121-14.348-27.267-21.233-2.647-2.237.994-5.66-7.325-6.655z"/><path fill="#1d3b3b" d="M304.13 66.947c4.197 3.345 17.189 14.394 20.061 18.69-2.071-.833-1.442-1.999-3.387-2.243l-.688.449c-.025 2.52 6.204 6.353 6.321 8.794l-.462.362-.351-.113.109-.48c-2.071-4.532-20.153-20.085-24.751-23.73 1.355-1.202 1.845-.42 3.148-1.729"/><path fill="#254746" d="M34.544 303.758c-.69-.779-1.016-1.294-1.028-2.257 1.673-.512 29.507-3.231 31.294-3.092.354.673.162 1.553.087 2.349.368 4.433.18 11.31.174 15.899a703 703 0 0 1-.255 24.608c-3.03-3.137-7.091-6.991-9.853-10.164-5.275-6.064-10.624-12.919-15.267-19.481-1.453-2.054-4.23-5.758-5.152-7.862"/><path fill="#d89137" d="M34.544 303.758c-.69-.779-1.016-1.294-1.028-2.257 1.673-.512 29.507-3.231 31.294-3.092.354.673.162 1.553.087 2.349-9.296 1.519-21.142 1.522-30.353 3"/><path fill="#152829" d="M52.009 306.293a5.796 5.796 0 0 1 7.85 6.398 5.795 5.795 0 1 1-7.85-6.398"/><path fill="#b64f31" d="M50.668 312.508a3.6 3.6 0 1 1 6.977-1.774 3.6 3.6 0 0 1-6.977 1.774"/><path fill="#d89137" d="M50.668 312.508a3.6 3.6 0 0 1 4.738-4.264c-3.069 1.879-2.707 2.63-4.738 4.264"/><path fill="#f1ead6" d="M255.554 56.499a46 46 0 0 1 2.024-3.074c7.765 6.51 15.483 12.98 23.816 18.768.979.68 2.054 1.41 2.994 2.124l-1.767 2.746c-3.841-2.922-12.179 1.311-14.737 4.858-1.035 1.436-2.636 6.274-2.986 6.516-4.843-3.41-11.039-1.312-12.834-3.598-.367-3.082 5.372-4.778 1.943-12.422l-.145-.318c-1.238-1.57-2.21-2.447-3.902-3.458 2.227-3.163 1.798-7.345 3.07-9.322l.916-.164c1.55-1.02 1.542-.895 1.608-2.657"/><path fill="#f7daa5" d="M255.554 56.499a9 9 0 0 0 1.69.333c3.214 2.732.659 13.212-3.382 15.267-1.238-1.569-2.21-2.447-3.902-3.458 2.227-3.163 1.798-7.345 3.07-9.322l.916-.164c1.55-1.02 1.542-.895 1.608-2.657"/><path fill="#d8973d" d="M131.926 148.244c-2.926-1.2-11.721-4.965-7.802-9.3l.465-.028c.455.857.854 1.922 1.476 2.661 2.37 2.815 7.794 4.636 11.224 5.682 6.842 2.085 14.235 3.508 21.33 4.427 26.29 3.408 89.694 4.58 112.165-7.463 3.262-1.748 4.005-3.965 5.553-4.929.136-.084.317-.022.476-.032 1.703 2.871-1.804 5.806-4.086 7.054-4.214 2.303-8.904 3.589-13.513 4.854-30.579 7.633-83.829 8.304-114.275.871-.129 1.447-.029 2.828-1.228 3.814-1.569.029-10.507-2.789-12.473-3.378l-1.321-.715c.369-2.003.15-2.524 2.009-3.518"/><path fill="#152829" d="M131.926 148.244c4.535 1.679 8.303 2.675 13.013 3.797-.129 1.447-.029 2.828-1.228 3.814-1.568.029-10.507-2.789-12.473-3.378l-1.321-.715c.369-2.003.15-2.524 2.009-3.518"/><path fill="#254746" d="M227.152 212.163c1.18.081.754-.01 1.634-.086 3.203-.274 5.672.008 9.009-.513 10.854-1.697 22.338-3.764 32.444-8.23 1.683-.743 4.65-3.357 6.32-4.41.192 1.159.473 2.631.593 3.77-1.411 1.568-3.462 3.418-5.179 4.58-6.196 4.194-47.334 12.404-51.615 8.727 2.229-1.099 4.52-2.176 6.463-3.717z"/><path fill="#f1ead6" d="M252.395 95.608c2.642-.234 6.535-1.092 7.415 2.216 1.539 5.783 1.556 14.889-.916 20.279-1.775 1.723-4.534 1.322-6.833 1.263-.047-2.849-.331-22.662.334-23.758"/><path fill="#254746" d="M196.818 125.066c2.496-.06 7.637-.495 10.058.065.273.064.365.507.515.863-.128.283-.217.714-.559.731-23.201 1.144-50.518-.123-72.489 8.785-1.969.875-4.048 2.554-5.725 2.708-1.032-.438-.935-.656-1.638-1.687 10.98-7.368 38.932-10.43 52.449-11.186 4.595-.257 12.509-.233 17.389-.279"/><path fill="#f1ead6" d="M253.108 89.125q.286-.016.573-.027c2.313-.083 7.983-.114 9.419 1.704 5.627 7.127 5.814 25.003-.042 32.084-1.976 2.39-5.608 2.725-8.391 2.774-.785.04-1.183.12-1.932-.138-.657-.804-.799-.886-1.01-1.863.996-2.613 6.551-.367 8.731-2.854 3.075-3.509 3.373-10.009 3.412-13.938.197-20.06-8.92-12.311-11.77-15.147-.05-1.054-.114-1.332.139-2.333z"/><path fill="#254746" d="M252.543 129.589c5.26.339 16.237 3.189 20.123 6.946.487.472.1 1.376-.051 1.916l-.712.199c-1.425-.962-3.17-2.215-4.776-2.94-4.278-1.932-9.043-2.766-13.262-4.59-.417-.181-1.06-1.134-1.322-1.531"/><path fill="#b64f31" d="M126.144 281.747c1.557.679 3.848 1.589 5.057 2.694-.036 1.082.111 2.543-.634 3.245-1.246.047-3.105.306-4.392.451-.044-2.104-.023-4.281-.031-6.39"/><path fill="#254746" d="M131.201 284.441c2.592.537 4.695 1.375 7.151 2.299-2.544.342-5.309.581-7.785.946.745-.702.598-2.163.634-3.245"/><path fill="#8a9f8a" d="M251.831 47c1.085-.012 1.074-.178 1.895.266-.44.737-2.627 2.18-3.652 3.532l-.247.333c-.588.493-.256.383-1.03.327-1.113-1.42 2.004-3.594 3.034-4.457"/><path fill="#677e73" d="M170.431 46.636c1.826.77 4.127 3.599 4.137 5.665-1.995-.784-4.451-3.343-4.137-5.665"/><path fill="#8a9f8a" d="M136.048 76.346c1.339.473 3.68 4.841 3.435 6.35-.661.115-.34.132-.962-.159-1.168-1.83-2.361-3.98-2.473-6.191"/><path fill="#677e73" d="m288.051 74.463.37.12c-.014.951-2.763 4.435-3.495 5.376l-.493-.297c-.724-1.925 2.073-4.328 3.618-5.2"/><path fill="#8a9f8a" d="m97.69 98.658.629.39c.758 1.846 1.487 3.887 1.552 5.889-1.957-1.078-2.934-4.245-2.18-6.28"/><path fill="#79947c" d="m326.337 94.636.59.21.2.556c-.292 1.646-1.227 3.297-1.979 4.815-.612-.172-.345-.028-.757-.519.229-1.744 1.164-3.485 1.946-5.062"/><path fill="#254746" d="M275.388 269.883c.77.278.695.54 1.255 1.444l-.148.412c-.748.07-1.394.092-2.146.114-.712.245-.951.387-1.711.309.217-.676 2.048-1.784 2.75-2.279"/></svg>